<?xml version="1.0" standalone="no"?>
<!DOCTYPE svg PUBLIC "-//W3C//DTD SVG 20010904//EN"
 "http://www.w3.org/TR/2001/REC-SVG-20010904/DTD/svg10.dtd">
<svg version="1.0" xmlns="http://www.w3.org/2000/svg"
 width="700.000000pt" height="700.000000pt" viewBox="0 0 700.000000 700.000000"
 preserveAspectRatio="xMidYMid meet">
<metadata>
Created by potrace 1.11, written by Peter Selinger 2001-2013
</metadata>
<g transform="translate(0.000000,700.000000) scale(0.100000,-0.100000)"
fill="#000000" stroke="none">
<path d="M3378 6415 c-2 -1 -48 -5 -103 -9 -55 -3 -118 -9 -140 -12 -663 -91
-1233 -371 -1690 -829 -185 -185 -276 -299 -444 -560 -57 -87 -186 -357 -234
-488 -74 -199 -133 -434 -153 -600 -4 -28 -8 -54 -9 -57 -8 -13 -19 -227 -19
-360 0 -373 52 -665 181 -1014 344 -935 1165 -1641 2138 -1840 66 -14 143 -28
170 -31 28 -4 61 -9 75 -11 61 -10 206 -17 340 -18 137 0 346 10 359 18 3 2
35 7 70 10 36 4 67 8 70 10 3 2 27 7 52 10 58 8 257 59 363 93 169 54 433 173
556 248 67 42 175 110 185 117 6 4 48 36 95 70 47 34 87 65 90 68 3 3 34 29
70 59 101 84 287 277 377 392 344 436 534 883 617 1449 26 176 26 538 1 730
-32 235 -85 452 -166 666 -50 135 -179 407 -199 419 -6 3 -8 11 -5 16 4 5 1 9
-4 9 -6 0 -11 5 -11 11 0 16 -134 212 -224 328 -99 128 -320 354 -436 445 -47
37 -94 74 -105 83 -53 44 -262 177 -360 230 -353 188 -714 297 -1125 339 -62
6 -377 14 -382 9z m385 -1628 c275 -64 467 -168 658 -357 192 -189 308 -402
366 -671 19 -90 25 -367 10 -464 -41 -264 -171 -520 -361 -710 -107 -107 -124
-121 -225 -187 -168 -110 -345 -173 -571 -203 -50 -7 -226 -7 -285 0 -300 36
-566 165 -781 379 -215 216 -337 465 -378 776 -7 47 -8 233 -2 285 24 217 103
428 228 613 68 100 242 273 343 340 153 101 300 162 491 202 113 23 400 21
507 -3z"/>
<path d="M3420 3781 c-77 -24 -143 -79 -182 -153 -33 -61 -33 -194 0 -255 95
-180 330 -218 468 -76 181 187 47 497 -212 492 -27 0 -60 -4 -74 -8z"/>
</g>
</svg>
